<svg width="512" height="512" viewBox="0 0 144 144" fill="none" xmlns="http://www.w3.org/2000/svg">
  <circle cx="72" cy="72" r="72" fill="#4F5D73"/>
  <path opacity="0.2" fill="#231F20" d="M101.8 39C101.4 38.4 100.8 38 100 38H66c-0.8 0-1.4 0.4-1.8 1.2l-16 32c-0.4 0.6-0.2 1.4 0 2 0.4 0.6 1 1 1.8 1h11L44 111.2c-0.4 0.8-0.2 1.8 0.6 2.4 0.4 0.2 0.8 0.4 1.2 0.4 0.4 0 1-0.2 1.2-0.4l48-40c0.6-0.6 0.8-1.4 0.6-2.2-0.2-0.8-1-1.4-1.8-1.4h-12.2l19.8-28.8c0.4-0.8 0.6-1.6 0.2-2.4z"/>
  <path fill="#F5CF87" d="M101.8 35C101.4 34.4 100.8 34 100 34H66c-0.8 0-1.4 0.4-1.8 1.2l-16 32c-0.4 0.6-0.2 1.4 0 2 0.4 0.6 1 1 1.8 1h11L44 107.2c-0.4 0.8-0.2 1.8 0.6 2.4 0.4 0.2 0.8 0.4 1.2 0.4 0.4 0 1-0.2 1.2-0.4l48-40c0.6-0.6 0.8-1.4 0.6-2.2-0.2-0.8-1-1.4-1.8-1.4h-12.2l19.8-28.8c0.4-0.8 0.6-1.6 0.2-2.4z"/>
</svg>